<svg width="162" height="37" viewBox="0 0 162 37" fill="none" xmlns="http://www.w3.org/2000/svg">
<path d="M162 21.64V26.64H157V21.64H162Z" fill="#4FFF4B"/>
<path d="M20.412 1.368V6.3H13.716V26.64H7.56001V6.3H0.864014V1.368H20.412Z" fill="white"/>
<path d="M35.8495 6.336C38.1535 6.336 40.0015 7.104 41.3935 8.64C42.7855 10.152 43.4815 12.24 43.4815 14.904V26.64H37.3615V15.732C37.3615 14.388 37.0135 13.344 36.3175 12.6C35.6215 11.856 34.6855 11.484 33.5095 11.484C32.3335 11.484 31.3975 11.856 30.7015 12.6C30.0055 13.344 29.6575 14.388 29.6575 15.732V26.64H23.5015V0H29.6575V9.252C30.2815 8.364 31.1335 7.656 32.2135 7.128C33.2935 6.6 34.5055 6.336 35.8495 6.336Z" fill="white"/>
<path d="M66.6954 16.272C66.6954 16.848 66.6594 17.448 66.5874 18.072H52.6554C52.7514 19.32 53.1474 20.28 53.8434 20.952C54.5634 21.6 55.4394 21.924 56.4714 21.924C58.0074 21.924 59.0754 21.276 59.6754 19.98H66.2274C65.8914 21.3 65.2794 22.488 64.3914 23.544C63.5274 24.6 62.4354 25.428 61.1154 26.028C59.7954 26.628 58.3194 26.928 56.6874 26.928C54.7194 26.928 52.9674 26.508 51.4314 25.668C49.8954 24.828 48.6954 23.628 47.8314 22.068C46.9674 20.508 46.5354 18.684 46.5354 16.596C46.5354 14.508 46.9554 12.684 47.7954 11.124C48.6594 9.564 49.8594 8.364 51.3954 7.524C52.9314 6.684 54.6954 6.264 56.6874 6.264C58.6314 6.264 60.3594 6.672 61.8714 7.488C63.3834 8.304 64.5594 9.468 65.3994 10.98C66.2634 12.492 66.6954 14.256 66.6954 16.272ZM60.3954 14.652C60.3954 13.596 60.0354 12.756 59.3154 12.132C58.5954 11.508 57.6954 11.196 56.6154 11.196C55.5834 11.196 54.7074 11.496 53.9874 12.096C53.2914 12.696 52.8594 13.548 52.6914 14.652H60.3954Z" fill="white"/>
<path d="M92.8719 13.68C94.3359 13.992 95.5119 14.724 96.3999 15.876C97.2879 17.004 97.7319 18.3 97.7319 19.764C97.7319 21.876 96.9879 23.556 95.4999 24.804C94.0359 26.028 91.9839 26.64 89.3439 26.64H77.5719V1.368H88.9479C91.5159 1.368 93.5199 1.956 94.9599 3.132C96.4239 4.308 97.1559 5.904 97.1559 7.92C97.1559 9.408 96.7599 10.644 95.9679 11.628C95.1999 12.612 94.1679 13.296 92.8719 13.68ZM83.7279 11.592H87.7599C88.7679 11.592 89.5359 11.376 90.0639 10.944C90.6159 10.488 90.8919 9.828 90.8919 8.964C90.8919 8.1 90.6159 7.44 90.0639 6.984C89.5359 6.528 88.7679 6.3 87.7599 6.3H83.7279V11.592ZM88.2639 21.672C89.2959 21.672 90.0879 21.444 90.6399 20.988C91.2159 20.508 91.5039 19.824 91.5039 18.936C91.5039 18.048 91.2039 17.352 90.6039 16.848C90.0279 16.344 89.2239 16.092 88.1919 16.092H83.7279V21.672H88.2639Z" fill="white"/>
<path d="M107.458 0V26.64H101.302V0H107.458Z" fill="white"/>
<path d="M121.064 26.928C119.096 26.928 117.32 26.508 115.736 25.668C114.176 24.828 112.94 23.628 112.028 22.068C111.14 20.508 110.696 18.684 110.696 16.596C110.696 14.532 111.152 12.72 112.064 11.16C112.976 9.576 114.224 8.364 115.808 7.524C117.392 6.684 119.168 6.264 121.136 6.264C123.104 6.264 124.88 6.684 126.464 7.524C128.048 8.364 129.296 9.576 130.208 11.16C131.12 12.72 131.576 14.532 131.576 16.596C131.576 18.66 131.108 20.484 130.172 22.068C129.26 23.628 128 24.828 126.392 25.668C124.808 26.508 123.032 26.928 121.064 26.928ZM121.064 21.6C122.24 21.6 123.236 21.168 124.052 20.304C124.892 19.44 125.312 18.204 125.312 16.596C125.312 14.988 124.904 13.752 124.088 12.888C123.296 12.024 122.312 11.592 121.136 11.592C119.936 11.592 118.94 12.024 118.148 12.888C117.356 13.728 116.96 14.964 116.96 16.596C116.96 18.204 117.344 19.44 118.112 20.304C118.904 21.168 119.888 21.6 121.064 21.6Z" fill="white"/>
<path d="M142.473 6.264C143.889 6.264 145.125 6.552 146.181 7.128C147.261 7.704 148.089 8.46 148.665 9.396V6.552H154.821V26.604C154.821 28.452 154.449 30.12 153.705 31.608C152.985 33.12 151.869 34.32 150.357 35.208C148.869 36.096 147.009 36.54 144.777 36.54C141.801 36.54 139.389 35.832 137.541 34.416C135.693 33.024 134.637 31.128 134.373 28.728H140.457C140.649 29.496 141.105 30.096 141.825 30.528C142.545 30.984 143.433 31.212 144.489 31.212C145.761 31.212 146.769 30.84 147.513 30.096C148.281 29.376 148.665 28.212 148.665 26.604V23.76C148.065 24.696 147.237 25.464 146.181 26.064C145.125 26.64 143.889 26.928 142.473 26.928C140.817 26.928 139.317 26.508 137.973 25.668C136.629 24.804 135.561 23.592 134.769 22.032C134.001 20.448 133.617 18.624 133.617 16.56C133.617 14.496 134.001 12.684 134.769 11.124C135.561 9.564 136.629 8.364 137.973 7.524C139.317 6.684 140.817 6.264 142.473 6.264ZM148.665 16.596C148.665 15.06 148.233 13.848 147.369 12.96C146.529 12.072 145.497 11.628 144.273 11.628C143.049 11.628 142.005 12.072 141.141 12.96C140.301 13.824 139.881 15.024 139.881 16.56C139.881 18.096 140.301 19.32 141.141 20.232C142.005 21.12 143.049 21.564 144.273 21.564C145.497 21.564 146.529 21.12 147.369 20.232C148.233 19.344 148.665 18.132 148.665 16.596Z" fill="white"/>
</svg>
